<mxfile host="app.diagrams.net" agent="Mozilla/5.0 (Windows NT 10.0; Win64; x64) AppleWebKit/537.36 (KHTML, like Gecko) Chrome/134.0.0.0 Safari/537.36" version="26.2.15">
  <diagram name="Trang-1" id="_KL2Usxi6EEkIu6Hz36A">
    <mxGraphModel dx="1066" dy="513" grid="1" gridSize="10" guides="1" tooltips="1" connect="1" arrows="1" fold="1" page="1" pageScale="1" pageWidth="1169" pageHeight="1654" math="0" shadow="0">
      <root>
        <mxCell id="0" />
        <mxCell id="1" parent="0" />
        <mxCell id="usbCSifRn_ATgrM5kic3-3" value="" style="edgeStyle=orthogonalEdgeStyle;rounded=0;orthogonalLoop=1;jettySize=auto;html=1;" edge="1" parent="1" source="usbCSifRn_ATgrM5kic3-1">
          <mxGeometry relative="1" as="geometry">
            <mxPoint x="500" y="150" as="targetPoint" />
          </mxGeometry>
        </mxCell>
        <mxCell id="usbCSifRn_ATgrM5kic3-1" value="Bắt đầu" style="ellipse;whiteSpace=wrap;html=1;" vertex="1" parent="1">
          <mxGeometry x="440" y="40" width="120" height="80" as="geometry" />
        </mxCell>
        <mxCell id="usbCSifRn_ATgrM5kic3-6" value="" style="edgeStyle=orthogonalEdgeStyle;rounded=0;orthogonalLoop=1;jettySize=auto;html=1;" edge="1" parent="1" source="usbCSifRn_ATgrM5kic3-4">
          <mxGeometry relative="1" as="geometry">
            <mxPoint x="500" y="270" as="targetPoint" />
          </mxGeometry>
        </mxCell>
        <mxCell id="usbCSifRn_ATgrM5kic3-12" value="Yes" style="edgeLabel;html=1;align=center;verticalAlign=middle;resizable=0;points=[];" vertex="1" connectable="0" parent="usbCSifRn_ATgrM5kic3-6">
          <mxGeometry x="-0.3581" relative="1" as="geometry">
            <mxPoint as="offset" />
          </mxGeometry>
        </mxCell>
        <mxCell id="usbCSifRn_ATgrM5kic3-4" value="Có chuyển động&amp;nbsp;&lt;div&gt;hay không?&lt;/div&gt;" style="rhombus;whiteSpace=wrap;html=1;" vertex="1" parent="1">
          <mxGeometry x="440" y="150" width="120" height="80" as="geometry" />
        </mxCell>
        <mxCell id="usbCSifRn_ATgrM5kic3-10" value="" style="edgeStyle=orthogonalEdgeStyle;rounded=0;orthogonalLoop=1;jettySize=auto;html=1;" edge="1" parent="1" source="usbCSifRn_ATgrM5kic3-8" target="usbCSifRn_ATgrM5kic3-9">
          <mxGeometry relative="1" as="geometry" />
        </mxCell>
        <mxCell id="usbCSifRn_ATgrM5kic3-19" value="YES" style="edgeLabel;html=1;align=center;verticalAlign=middle;resizable=0;points=[];" vertex="1" connectable="0" parent="usbCSifRn_ATgrM5kic3-10">
          <mxGeometry x="-0.72" y="-1" relative="1" as="geometry">
            <mxPoint as="offset" />
          </mxGeometry>
        </mxCell>
        <mxCell id="usbCSifRn_ATgrM5kic3-14" value="" style="edgeStyle=orthogonalEdgeStyle;rounded=0;orthogonalLoop=1;jettySize=auto;html=1;" edge="1" parent="1" source="usbCSifRn_ATgrM5kic3-8" target="usbCSifRn_ATgrM5kic3-13">
          <mxGeometry relative="1" as="geometry" />
        </mxCell>
        <mxCell id="usbCSifRn_ATgrM5kic3-18" value="NO" style="edgeLabel;html=1;align=center;verticalAlign=middle;resizable=0;points=[];" vertex="1" connectable="0" parent="usbCSifRn_ATgrM5kic3-14">
          <mxGeometry x="-0.35" y="2" relative="1" as="geometry">
            <mxPoint as="offset" />
          </mxGeometry>
        </mxCell>
        <mxCell id="usbCSifRn_ATgrM5kic3-8" value="Đã quá 5s chưa?" style="rhombus;whiteSpace=wrap;html=1;" vertex="1" parent="1">
          <mxGeometry x="440" y="270" width="120" height="80" as="geometry" />
        </mxCell>
        <mxCell id="usbCSifRn_ATgrM5kic3-9" value="Số lần chuyển động= 0" style="whiteSpace=wrap;html=1;" vertex="1" parent="1">
          <mxGeometry x="260" y="280" width="130" height="60" as="geometry" />
        </mxCell>
        <mxCell id="usbCSifRn_ATgrM5kic3-16" value="" style="edgeStyle=orthogonalEdgeStyle;rounded=0;orthogonalLoop=1;jettySize=auto;html=1;" edge="1" parent="1" source="usbCSifRn_ATgrM5kic3-13" target="usbCSifRn_ATgrM5kic3-15">
          <mxGeometry relative="1" as="geometry" />
        </mxCell>
        <mxCell id="usbCSifRn_ATgrM5kic3-13" value="Số Lần chuyển động= Số lần chuyển dộng+1" style="whiteSpace=wrap;html=1;" vertex="1" parent="1">
          <mxGeometry x="420" y="390" width="160" height="60" as="geometry" />
        </mxCell>
        <mxCell id="usbCSifRn_ATgrM5kic3-15" value="Kết thúc" style="ellipse;whiteSpace=wrap;html=1;" vertex="1" parent="1">
          <mxGeometry x="440" y="510" width="120" height="80" as="geometry" />
        </mxCell>
        <mxCell id="usbCSifRn_ATgrM5kic3-17" value="" style="endArrow=classic;html=1;rounded=0;exitX=0.5;exitY=1;exitDx=0;exitDy=0;" edge="1" parent="1" source="usbCSifRn_ATgrM5kic3-9">
          <mxGeometry width="50" height="50" relative="1" as="geometry">
            <mxPoint x="520" y="390" as="sourcePoint" />
            <mxPoint x="500" y="480" as="targetPoint" />
            <Array as="points">
              <mxPoint x="325" y="480" />
            </Array>
          </mxGeometry>
        </mxCell>
      </root>
    </mxGraphModel>
  </diagram>
</mxfile>
